<?xml version="1.0" encoding="UTF-8" standalone="no"?>
<!-- Created with Inkscape (http://www.inkscape.org/) -->

<svg
   xmlns:dc="http://purl.org/dc/elements/1.1/"
   xmlns:cc="http://creativecommons.org/ns#"
   xmlns:rdf="http://www.w3.org/1999/02/22-rdf-syntax-ns#"
   xmlns:svg="http://www.w3.org/2000/svg"
   xmlns="http://www.w3.org/2000/svg"
   xmlns:sodipodi="http://sodipodi.sourceforge.net/DTD/sodipodi-0.dtd"
   xmlns:inkscape="http://www.inkscape.org/namespaces/inkscape"
   width="200.12361mm"
   height="200.12361mm"
   viewBox="0 0 200.1236 200.12361"
   version="1.1"
   id="svg8"
   inkscape:version="0.92.2 (unknown)"
   sodipodi:docname="icon1.svg">
  <defs
     id="defs2">
    <filter
       inkscape:collect="always"
       style="color-interpolation-filters:sRGB"
       id="filter5355"
       x="-0.059839852"
       width="1.1196797"
       y="-0.060161009"
       height="1.120322">
      <feGaussianBlur
         inkscape:collect="always"
         stdDeviation="3.3701547"
         id="feGaussianBlur5357" />
    </filter>
    <clipPath
       clipPathUnits="userSpaceOnUse"
       id="clipPath6410">
      <path
         style="color:#000000;font-style:normal;font-variant:normal;font-weight:normal;font-stretch:normal;font-size:medium;line-height:normal;font-family:sans-serif;font-variant-ligatures:normal;font-variant-position:normal;font-variant-caps:normal;font-variant-numeric:normal;font-variant-alternates:normal;font-feature-settings:normal;text-indent:0;text-align:start;text-decoration:none;text-decoration-line:none;text-decoration-style:solid;text-decoration-color:#000000;letter-spacing:normal;word-spacing:normal;text-transform:none;writing-mode:lr-tb;direction:ltr;text-orientation:mixed;dominant-baseline:auto;baseline-shift:baseline;text-anchor:start;white-space:normal;shape-padding:0;clip-rule:nonzero;display:inline;overflow:visible;visibility:visible;opacity:0.9;isolation:auto;mix-blend-mode:normal;color-interpolation:sRGB;color-interpolation-filters:linearRGB;solid-color:#000000;solid-opacity:1;vector-effect:none;fill:#00112b;fill-opacity:0.90196078;fill-rule:nonzero;stroke:none;stroke-width:0.79374999;stroke-linecap:butt;stroke-linejoin:miter;stroke-miterlimit:4;stroke-dasharray:none;stroke-dashoffset:0;stroke-opacity:1;color-rendering:auto;image-rendering:auto;shape-rendering:auto;text-rendering:auto;enable-background:accumulate"
         d="m 321.80469,53.628906 c -0.77552,0 -1.5513,0.0172 -2.32616,0.04884 l 0.0312,0.792956 c 0.76409,-0.03117 1.53017,-0.04688 2.29492,-0.04686 30.41891,0 55.31808,24.174423 56.21679,54.580068 l 0.79298,-0.0233 C 377.90329,78.154458 352.64429,53.629038 321.80469,53.629038 Z"
         id="path6412"
         inkscape:connector-curvature="0" />
    </clipPath>
    <clipPath
       clipPathUnits="userSpaceOnUse"
       id="clipPath6424">
      <path
         style="fill:#00675b;fill-opacity:1;stroke-width:0.26805094"
         d="m 386.42346,114.44209 c 0.11416,-0.54848 0.20449,-3.59064 0.20071,-6.76034 -0.008,-6.50243 -0.4128,-9.901268 -1.87029,-15.694134 -3.98907,-15.855051 -14.62579,-30.244654 -28.5786,-38.661817 -7.40317,-4.466034 -15.47862,-7.39259 -23.93373,-8.67357 -5.10127,-0.772875 -13.06817,-0.829998 -17.84202,-0.127927 -1.84285,0.271013 -3.43945,0.574279 -3.54801,0.673921 -0.10858,0.0997 6.82477,6.690439 15.40743,14.646169 8.58266,7.955756 25.58405,23.719261 37.78089,35.029987 l 22.17605,20.564981 z"
         id="path6426"
         inkscape:connector-curvature="0" />
    </clipPath>
    <clipPath
       clipPathUnits="userSpaceOnUse"
       id="clipPath6428">
      <path
         inkscape:connector-curvature="0"
         id="path6430"
         d="m 386.42346,114.44209 c 0.11416,-0.54848 0.20449,-3.59064 0.20071,-6.76034 -0.008,-6.50243 -0.4128,-9.901268 -1.87029,-15.694134 -3.98907,-15.855051 -14.62579,-30.244654 -28.5786,-38.661817 -7.40317,-4.466034 -15.47862,-7.39259 -23.93373,-8.67357 -5.10127,-0.772875 -13.06817,-0.829998 -17.84202,-0.127927 -1.84285,0.271013 -3.43945,0.574279 -3.54801,0.673921 -0.10858,0.0997 6.82477,6.690439 15.40743,14.646169 8.58266,7.955756 25.58405,23.719261 37.78089,35.029987 l 22.17605,20.564981 z"
         style="fill:#00675b;fill-opacity:1;stroke-width:0.26805094" />
    </clipPath>
    <clipPath
       clipPathUnits="userSpaceOnUse"
       id="clipPath6432">
      <path
         style="color:#000000;font-style:normal;font-variant:normal;font-weight:normal;font-stretch:normal;font-size:medium;line-height:normal;font-family:sans-serif;font-variant-ligatures:normal;font-variant-position:normal;font-variant-caps:normal;font-variant-numeric:normal;font-variant-alternates:normal;font-feature-settings:normal;text-indent:0;text-align:start;text-decoration:none;text-decoration-line:none;text-decoration-style:solid;text-decoration-color:#000000;letter-spacing:normal;word-spacing:normal;text-transform:none;writing-mode:lr-tb;direction:ltr;text-orientation:mixed;dominant-baseline:auto;baseline-shift:baseline;text-anchor:start;white-space:normal;shape-padding:0;clip-rule:nonzero;display:inline;overflow:visible;visibility:visible;opacity:0.9;isolation:auto;mix-blend-mode:normal;color-interpolation:sRGB;color-interpolation-filters:linearRGB;solid-color:#000000;solid-opacity:1;vector-effect:none;fill:#00112b;fill-opacity:0.90196078;fill-rule:nonzero;stroke:none;stroke-width:0.79374999;stroke-linecap:butt;stroke-linejoin:miter;stroke-miterlimit:4;stroke-dasharray:none;stroke-dashoffset:0;stroke-opacity:1;color-rendering:auto;image-rendering:auto;shape-rendering:auto;text-rendering:auto;enable-background:accumulate"
         d="m 327.82227,61.382812 -0.0957,0.789067 c 21.02443,2.567728 37.99655,18.385684 42.03515,39.177731 l 0.7793,-0.15039 C 366.43739,80.072449 349.18515,63.991894 327.82227,61.382812 Z"
         id="path6434"
         inkscape:connector-curvature="0" />
    </clipPath>
    <clipPath
       clipPathUnits="userSpaceOnUse"
       id="clipPath6436">
      <path
         style="color:#000000;font-style:normal;font-variant:normal;font-weight:normal;font-stretch:normal;font-size:medium;line-height:normal;font-family:sans-serif;font-variant-ligatures:normal;font-variant-position:normal;font-variant-caps:normal;font-variant-numeric:normal;font-variant-alternates:normal;font-feature-settings:normal;text-indent:0;text-align:start;text-decoration:none;text-decoration-line:none;text-decoration-style:solid;text-decoration-color:#000000;letter-spacing:normal;word-spacing:normal;text-transform:none;writing-mode:lr-tb;direction:ltr;text-orientation:mixed;dominant-baseline:auto;baseline-shift:baseline;text-anchor:start;white-space:normal;shape-padding:0;clip-rule:nonzero;display:inline;overflow:visible;visibility:visible;opacity:0.9;isolation:auto;mix-blend-mode:normal;color-interpolation:sRGB;color-interpolation-filters:linearRGB;solid-color:#000000;solid-opacity:1;vector-effect:none;fill:#00112b;fill-opacity:0.90196078;fill-rule:nonzero;stroke:none;stroke-width:0.79374999;stroke-linecap:butt;stroke-linejoin:miter;stroke-miterlimit:4;stroke-dasharray:none;stroke-dashoffset:0;stroke-opacity:1;color-rendering:auto;image-rendering:auto;shape-rendering:auto;text-rendering:auto;enable-background:accumulate"
         d="m 331.0332,64.390621 -0.15626,0.779304 c 17.22617,3.435615 31.03356,16.304128 35.67189,33.246087 l 0.76562,-0.210926 C 362.59722,80.974864 348.55245,67.884709 331.0332,64.390621 Z"
         id="path6438"
         inkscape:connector-curvature="0" />
    </clipPath>
    <clipPath
       clipPathUnits="userSpaceOnUse"
       id="clipPath6440">
      <path
         style="color:#000000;font-style:normal;font-variant:normal;font-weight:normal;font-stretch:normal;font-size:medium;line-height:normal;font-family:sans-serif;font-variant-ligatures:normal;font-variant-position:normal;font-variant-caps:normal;font-variant-numeric:normal;font-variant-alternates:normal;font-feature-settings:normal;text-indent:0;text-align:start;text-decoration:none;text-decoration-line:none;text-decoration-style:solid;text-decoration-color:#000000;letter-spacing:normal;word-spacing:normal;text-transform:none;writing-mode:lr-tb;direction:ltr;text-orientation:mixed;dominant-baseline:auto;baseline-shift:baseline;text-anchor:start;white-space:normal;shape-padding:0;clip-rule:nonzero;display:inline;overflow:visible;visibility:visible;opacity:0.9;isolation:auto;mix-blend-mode:normal;color-interpolation:sRGB;color-interpolation-filters:linearRGB;solid-color:#000000;solid-opacity:1;vector-effect:none;fill:#00112b;fill-opacity:0.90196078;fill-rule:nonzero;stroke:none;stroke-width:0.79374999;stroke-linecap:butt;stroke-linejoin:miter;stroke-miterlimit:4;stroke-dasharray:none;stroke-dashoffset:0;stroke-opacity:1;color-rendering:auto;image-rendering:auto;shape-rendering:auto;text-rendering:auto;enable-background:accumulate"
         d="m 334.80079,67.873041 -0.23048,0.759777 c 12.98509,3.943906 23.41848,13.666126 28.26562,26.341785 l 0.74025,-0.283184 C 358.64165,81.78732 348.0199,71.88804 334.80079,67.873041 Z"
         id="path6442"
         inkscape:connector-curvature="0" />
    </clipPath>
    <clipPath
       clipPathUnits="userSpaceOnUse"
       id="clipPath6444">
      <path
         style="color:#000000;font-style:normal;font-variant:normal;font-weight:normal;font-stretch:normal;font-size:medium;line-height:normal;font-family:sans-serif;font-variant-ligatures:normal;font-variant-position:normal;font-variant-caps:normal;font-variant-numeric:normal;font-variant-alternates:normal;font-feature-settings:normal;text-indent:0;text-align:start;text-decoration:none;text-decoration-line:none;text-decoration-style:solid;text-decoration-color:#000000;letter-spacing:normal;word-spacing:normal;text-transform:none;writing-mode:lr-tb;direction:ltr;text-orientation:mixed;dominant-baseline:auto;baseline-shift:baseline;text-anchor:start;white-space:normal;shape-padding:0;clip-rule:nonzero;display:inline;overflow:visible;visibility:visible;opacity:0.9;isolation:auto;mix-blend-mode:normal;color-interpolation:sRGB;color-interpolation-filters:linearRGB;solid-color:#000000;solid-opacity:1;vector-effect:none;fill:#00112b;fill-opacity:0.90196078;fill-rule:nonzero;stroke:none;stroke-width:0.79374999;stroke-linecap:butt;stroke-linejoin:miter;stroke-miterlimit:4;stroke-dasharray:none;stroke-dashoffset:0;stroke-opacity:1;color-rendering:auto;image-rendering:auto;shape-rendering:auto;text-rendering:auto;enable-background:accumulate"
         d="m 339.09569,71.820307 -0.32224,0.724614 c 8.50107,3.784256 15.49334,10.303219 19.86521,18.517579 l 0.69924,-0.373036 c -4.455,-8.370517 -11.57954,-15.012961 -20.24221,-18.869157 z"
         id="path6446"
         inkscape:connector-curvature="0" />
    </clipPath>
  </defs>
  <sodipodi:namedview
     id="base"
     pagecolor="#ffffff"
     bordercolor="#666666"
     borderopacity="1.0"
     inkscape:pageopacity="0.0"
     inkscape:pageshadow="2"
     inkscape:zoom="0.5"
     inkscape:cx="970.4117"
     inkscape:cy="-180.6642"
     inkscape:document-units="mm"
     inkscape:current-layer="layer1"
     showgrid="false"
     inkscape:object-paths="true"
     inkscape:snap-intersection-paths="true"
     inkscape:snap-smooth-nodes="true"
     inkscape:snap-midpoints="true"
     fit-margin-top="0"
     fit-margin-left="0"
     fit-margin-right="0"
     fit-margin-bottom="0"
     inkscape:window-width="3698"
     inkscape:window-height="2118"
     inkscape:window-x="142"
     inkscape:window-y="42"
     inkscape:window-maximized="1" />
  <metadata
     id="metadata5">
    <rdf:RDF>
      <cc:Work
         rdf:about="">
        <dc:format>image/svg+xml</dc:format>
        <dc:type
           rdf:resource="http://purl.org/dc/dcmitype/StillImage" />
        <dc:title></dc:title>
      </cc:Work>
    </rdf:RDF>
  </metadata>
  <g
     inkscape:label="Layer 1"
     inkscape:groupmode="layer"
     id="layer1"
     transform="translate(83.966614,317.37061)">
    <rect
       style="opacity:1;fill:#ffffff;fill-opacity:1;stroke:none;stroke-width:0.4390223;stroke-miterlimit:4;stroke-dasharray:3.51217847, 3.51217846999999983;stroke-dashoffset:0;stroke-opacity:1"
       id="rect5475"
       width="200.12361"
       height="200.12361"
       x="-83.966614"
       y="-317.37061" />
    <g
       id="g5503"
       transform="translate(2.0742959,-0.82534822)">
      <g
         transform="matrix(-1,0,0,1,-196.46461,-267.5368)"
         id="g5423">
        <path
           inkscape:connector-curvature="0"
           id="path5341"
           d="m -222.31036,115.03674 a 67.758201,67.758201 0 0 1 -55.75863,-66.687209 67.758201,67.758201 0 0 1 67.7582,-67.7582 67.758201,67.758201 0 0 1 67.40877,60.88576"
           style="opacity:0.9;fill:#374548;fill-opacity:1;stroke:none;stroke-width:0.51885903;stroke-miterlimit:4;stroke-dasharray:4.15087215, 4.15087215;stroke-dashoffset:0;stroke-opacity:1;filter:url(#filter5355)" />
        <path
           style="opacity:1;fill:#d7f4ee;fill-opacity:1;stroke:none;stroke-width:0.51885903;stroke-miterlimit:4;stroke-dasharray:4.15087215, 4.15087215;stroke-dashoffset:0;stroke-opacity:1"
           d="m -222.31036,115.03674 a 67.758201,67.758201 0 0 1 -55.75863,-66.687209 67.758201,67.758201 0 0 1 67.7582,-67.7582 67.758201,67.758201 0 0 1 67.40877,60.88576"
           id="path5224"
           inkscape:connector-curvature="0" />
        <path
           inkscape:connector-curvature="0"
           style="fill:#afe9dd;stroke-width:0.26458332"
           d="m -220.45991,110.2805 -0.189,-2.52085 -0.96118,-0.16228 c -0.52866,-0.0893 -2.32475,-0.51049 -3.99132,-0.93607 -10.86858,-2.77539 -20.40237,-8.347503 -28.37873,-16.586218 -9.32522,-9.631931 -14.86121,-21.168094 -16.65924,-34.715273 -0.48352,-3.643122 -0.40201,-11.89837 0.15415,-15.610416 1.96669,-13.126698 7.46404,-24.314604 16.55941,-33.7008543 3.40429,-3.51316 6.01478,-5.70528 9.92618,-8.3354 17.49455,-11.7637397 40.64679,-13.3686297 59.62152,-4.13291 6.36394,3.09757 10.71391,6.13022 15.74889,10.97958 8.90946,8.5810003 14.6594,18.8878753 17.34353,31.0885423 0.24732,1.124217 1.07166,6.305722 1.0764,6.765925 7.9e-4,0.08324 1.13852,0.30744 2.52814,0.498229 l 2.52659,0.34689 -0.60836,0.651121 c -1.02574,1.097846 -74.02188,68.726194 -74.27288,68.811204 -0.12931,0.0438 -0.32015,-1.05475 -0.4241,-2.44122 z"
           id="path5182" />
        <g
           id="g5208"
           style="fill:#87decd">
          <path
             inkscape:connector-curvature="0"
             id="path5180"
             d="m -241.38739,91.546912 c 0.62739,-0.18746 1.56007,-0.79574 2.20023,-1.434971 2.09911,-2.096034 2.39596,-5.371798 0.70783,-7.811028 -0.89054,-1.286775 -1.52057,-1.555099 -0.94572,-0.402776 0.22882,0.458679 0.46718,1.450634 0.52968,2.204345 0.36559,4.408508 -4.58095,7.743734 -8.50518,5.734655 -1.08562,-0.555802 -1.14997,-0.247523 -0.11337,0.543126 1.91063,1.457315 3.89137,1.834497 6.12653,1.166649 z"
             style="fill:#87decd;stroke-width:0.26458332" />
          <path
             inkscape:connector-curvature="0"
             id="path5178"
             d="m -220.41826,82.624834 c 0.35249,-0.938768 0.59225,-1.833607 0.5328,-1.988534 -0.0594,-0.154924 -0.80715,-0.566021 -1.66154,-0.913543 -8.2832,-3.369161 -15.19776,-10.764263 -18.09757,-19.355283 -2.14183,-6.345409 -2.13051,-14.542825 0.029,-20.988506 3.22022,-9.611732 10.63401,-17.025516 20.24574,-20.245739 6.36323,-2.13188 14.28746,-2.17441 20.61105,-0.11062 8.89252,2.9022 16.30358,9.721049 19.71961,18.143853 0.33863,0.834958 0.65423,1.479573 0.70133,1.432472 0.19506,-0.195059 -1.0239,-3.22458 -2.27214,-5.647039 -4.72538,-9.170516 -13.13418,-15.410536 -23.52455,-17.457136 -3.40807,-0.67129 -9.42061,-0.60383 -12.96048,0.14543 -11.53706,2.44195 -20.83075,10.477088 -24.75367,21.401545 -1.9458,5.418614 -2.4481,12.743704 -1.25612,18.318075 2.25984,10.568241 9.0268,19.011454 18.87564,23.551363 1.41651,0.652946 2.57736,1.330404 2.57969,1.505458 0.007,0.548034 -0.59637,1.666208 -0.89814,1.663665 -0.72322,-0.0061 -6.3376,-3.000354 -8.40583,-4.483002 -2.93836,-2.106411 -7.09035,-6.384668 -9.01842,-9.292677 -0.82732,-1.247804 -2.04955,-3.390929 -2.71606,-4.762499 -1.32401,-2.724574 -1.32665,-2.319872 -0.005,0.813525 2.86615,6.796698 8.19765,12.940283 14.80197,17.056572 2.22975,1.389743 5.91395,3.089222 6.47291,2.985879 0.19756,-0.03653 0.64759,-0.834494 1.00008,-1.773259 z"
             style="fill:#87decd;stroke-width:0.26458332" />
          <path
             inkscape:connector-curvature="0"
             id="path5176"
             d="m -249.88232,81.214909 c 0.0715,-0.186253 -0.45595,-1.108988 -1.17206,-2.050521 -2.33621,-3.071621 -5.45246,-8.634655 -6.70546,-11.970373 -0.26086,-0.694471 -0.52001,-1.216949 -0.5759,-1.161069 -0.21185,0.211857 1.35577,4.133784 2.85684,7.14733 1.54669,3.105123 4.8546,8.373281 5.25764,8.373281 0.11495,0 0.26747,-0.152392 0.33894,-0.338648 z"
             style="fill:#87decd;stroke-width:0.26458332" />
          <path
             inkscape:connector-curvature="0"
             id="path5174"
             d="m -247.10347,78.754197 c 0.0407,-0.02127 -0.6976,-1.192832 -1.64074,-2.603463 -4.01894,-6.011079 -6.67911,-13.245901 -7.57881,-20.612006 -0.46006,-3.766648 -0.19116,-11.184022 0.53831,-14.848813 4.12349,-20.716086 20.56077,-35.8562163 41.54135,-38.2631163 3.89592,-0.44694 10.73064,-0.19074 14.42625,0.54078 16.14861,3.19649 28.9318,13.7134703 35.22052,28.9766063 0.47966,1.164166 0.87728,1.967042 0.8836,1.78417 0.0177,-0.511678 -1.78893,-4.976924 -2.96529,-7.329014 -5.69172,-11.380372 -15.86149,-20.2034523 -27.91066,-24.2146923 -10.27881,-3.42188 -21.0921,-3.41783 -31.39352,0.0117 -14.43196,4.80472 -25.76655,16.1394003 -30.56972,30.5699613 -4.76487,14.315514 -2.86794,29.691019 5.20299,42.172634 0.79983,1.236927 1.86915,2.759713 2.37627,3.383971 0.79125,0.974016 0.98398,1.087842 1.35872,0.802473 0.24017,-0.182899 0.47,-0.349946 0.51073,-0.371221 z"
             style="fill:#87decd;stroke-width:0.26458332" />
          <path
             inkscape:connector-curvature="0"
             id="path5172"
             d="m -175.39753,41.168157 c 0.97579,-0.238323 1.86383,-0.51254 1.97343,-0.609369 0.21419,-0.189241 -0.95817,-3.811291 -1.92765,-5.95553 -3.67927,-8.137631 -11.11623,-15.251689 -19.62681,-18.774659 -3.21401,-1.33044 -3.19265,-1.18001 0.0627,0.44127 3.86592,1.92538 6.26783,3.59416 9.17921,6.377451 4.345,4.153847 7.53368,9.060023 9.30959,14.323948 l 0.80337,2.38125 -1.16982,0.342487 c -0.81324,0.238093 -1.1334,0.45988 -1.05034,0.727604 0.0657,0.211815 0.17527,0.563711 0.24346,0.781992 0.15224,0.48731 0.0516,0.488974 2.20289,-0.03644 z"
             style="fill:#87decd;stroke-width:0.26458332" />
          <path
             inkscape:connector-curvature="0"
             id="path5152"
             d="m -159.99732,38.998458 c 2.34096,-0.548159 2.28701,-0.258384 0.8699,-4.673023 -4.43575,-13.818446 -14.12064,-24.9830263 -27.19594,-31.3510163 -2.9619,-1.44251 -7.7638,-3.30672 -7.9746,-3.09592 -0.0513,0.0513 0.94815,0.48664 2.22091,0.96751 14.92785,5.64 26.75357,18.6590603 31.00669,34.1355663 0.29913,1.088482 0.54387,2.06934 0.54387,2.179685 0,0.110347 -0.48576,0.278304 -1.07947,0.373242 -0.93613,0.149694 -1.05957,0.246722 -0.92965,0.730732 0.0824,0.306964 0.15144,0.706945 0.15342,0.888846 0.004,0.408078 -0.0329,0.410515 2.38487,-0.155622 z"
             style="fill:#87decd;stroke-width:0.26458332" />
        </g>
        <g
           id="g5214"
           style="fill:#00675b;fill-opacity:1">
          <path
             inkscape:connector-curvature="0"
             id="path5192"
             d="m -247.40055,89.837137 c -2.80375,-1.459925 -3.89414,-4.881485 -2.49422,-7.826655 l 0.45485,-0.956915 -1.4327,-1.904458 c -4.86561,-6.467784 -8.13176,-14.255702 -9.60657,-22.906248 -0.61676,-3.617597 -0.61776,-11.449751 -0.002,-15.079631 1.89116,-11.14703 6.75735,-20.74611 14.38281,-28.37156 15.60498,-15.6049796 38.87992,-19.4643696 58.5144,-9.7027196 5.3207,2.64529 8.82703,5.15077 13.21667,9.4441096 4.30936,4.21481 7.23823,8.22254 9.90234,13.54988 1.95779,3.91492 4.44091,11.05088 3.94621,11.34057 -0.0992,0.0581 -0.53754,0.18144 -0.9741,0.27411 l -0.79375,0.16849 -0.74198,-2.73916 c -1.35686,-5.00908 -4.02617,-10.50426 -7.41395,-15.26268 -2.13548,-2.99948 -8.1601,-8.96788 -11.29095,-11.1855896 -4.95635,-3.5108 -12.12081,-6.62495 -18.12089,-7.87654996 -17.2139,-3.59075004 -35.40059,2.33248996 -46.74888,15.22567956 -11.55936,13.13301 -15.35303,31.03661 -10.09146,47.625006 1.55132,4.89091 5.20646,11.783787 8.10645,15.287174 l 0.60848,0.735095 1.04243,-0.437182 c 0.57333,-0.24045 1.66928,-0.432175 2.43543,-0.426056 4.96542,0.03967 7.5882,5.815613 4.35565,9.592114 -1.83129,2.139445 -4.77942,2.721882 -7.25434,1.433176 z"
             style="fill:#00675b;fill-opacity:1;stroke-width:0.26458332" />
          <path
             inkscape:connector-curvature="0"
             id="path5188"
             d="m -224.13607,81.512518 c -5.82372,-2.520902 -11.59525,-7.267818 -15.2309,-12.526972 -2.57606,-3.726397 -4.76802,-8.822134 -5.76516,-13.402521 -0.68352,-3.139752 -0.69029,-10.589225 -0.0125,-13.696995 1.59289,-7.30309 4.7672,-13.15313 9.9485,-18.33443 6.59548,-6.5955 14.54222,-10.11342 23.69705,-10.4904 13.85603,-0.57058 27.06287,7.22349 33.29091,19.64678 1.30101,2.59515 2.77555,6.60823 2.52146,6.86233 -0.0882,0.0882 -0.56205,0.22455 -1.05303,0.30302 l -0.89268,0.14268 -0.48372,-1.67535 c -0.26605,-0.92144 -0.94237,-2.6564 -1.50293,-3.85547 -3.12293,-6.68008 -8.51824,-12.30549 -14.96167,-15.59976 -4.64357,-2.37407 -8.64406,-3.43892 -13.87562,-3.69344 -19.88524,-0.96741 -36.01315,15.09235 -35.11548,34.96708 0.37976,8.407886 3.40492,15.582076 9.08933,21.555422 3.35024,3.520525 7.0808,6.145641 11.1184,7.823774 0.99598,0.413957 1.85251,0.781333 1.90339,0.816393 0.15515,0.106902 -0.5179,1.951948 -0.70835,1.941796 -0.0979,-0.0052 -0.98302,-0.35799 -1.96703,-0.783937 z"
             style="fill:#00675b;fill-opacity:1;stroke-width:0.26458332" />
          <path
             inkscape:connector-curvature="0"
             id="path5184"
             d="m -227.0692,114.37486 c -12.22115,-3.17753 -22.82165,-9.37376 -31.76119,-18.565141 -13.19606,-13.567816 -19.94949,-30.853521 -19.35686,-49.544785 0.31525,-9.942909 2.39804,-18.321971 6.78233,-27.285335 3.57087,-7.30041 7.96272,-13.3607103 13.81346,-19.0611903 5.57275,-5.42963 10.78939,-9.10825 17.82226,-12.5677597 16.88902,-8.30778 36.51153,-9.11298 54.02756,-2.217 8.49272,3.34355 16.02156,8.2106397 22.66728,14.6534897 10.92504,10.5915503 18.14385,24.6325483 20.15685,39.2062763 l 0.16967,1.228397 -1.41484,0.174667 c -0.77817,0.09607 -1.73017,0.234699 -2.11555,0.30807 -0.67011,0.12758 -0.70872,0.07212 -0.88441,-1.270772 -1.11465,-8.519909 -5.00676,-18.855576 -9.84457,-26.142718 -10.6948,-16.1094303 -27.18308,-26.1295 -46.38178,-28.18661 -26.81206,-2.87287 -52.45991,11.1186397 -64.03662,34.93349 -2.27738,4.684865 -3.51596,8.039157 -4.63847,12.561751 -1.23595,4.979593 -1.70192,8.385709 -1.88301,13.764286 -0.68597,20.372955 8.00714,39.406476 23.72685,51.949845 6.76502,5.398069 15.80626,9.860429 24.20938,11.948679 1.60073,0.3978 2.98301,0.76522 3.07173,0.8165 0.27692,0.16005 -0.61501,4.07731 -0.92548,4.0646 -0.16179,-0.007 -1.60386,-0.35255 -3.20459,-0.76874 z"
             style="fill:#00675b;fill-opacity:1;stroke-width:0.26458332" />
          <path
             inkscape:connector-curvature="0"
             id="path5194"
             d="m -220.10682,112.64821 c -0.11417,-0.54849 -0.20449,-3.59065 -0.2007,-6.76035 0.008,-6.502437 0.4128,-9.901269 1.87028,-15.69414 3.98908,-15.855048 14.62579,-30.244647 28.5786,-38.66182 7.40316,-4.466034 15.47862,-7.392573 23.93373,-8.673564 5.10127,-0.772878 13.06816,-0.829997 17.84201,-0.127935 1.84285,0.271016 3.43946,0.574289 3.54802,0.673928 0.10857,0.09969 -6.82478,6.690431 -15.40744,14.646179 -8.58264,7.955749 -25.58403,23.719242 -37.78087,35.029979 l -22.17605,20.564983 z"
             style="fill:#00675b;fill-opacity:1;stroke-width:0.26805094" />
          <path
             inkscape:connector-curvature="0"
             style="fill:#00675b;fill-opacity:1;stroke-width:0.26458332"
             d="m -227.0692,114.37486 c -12.22115,-3.17753 -22.82165,-9.37376 -31.76119,-18.565141 -13.19606,-13.567816 -19.94949,-30.853521 -19.35686,-49.544785 0.31525,-9.942909 2.39804,-18.321971 6.78233,-27.285335 3.57087,-7.30041 7.96272,-13.3607103 13.81346,-19.0611903 5.57275,-5.42963 10.78939,-9.10825 17.82226,-12.5677597 16.88902,-8.30778 36.51153,-9.11298 54.02756,-2.217 8.49272,3.34355 16.02156,8.2106397 22.66728,14.6534897 10.92504,10.5915503 18.14385,24.6325483 20.15685,39.2062763 l 0.16967,1.228397 -1.41484,0.174667 c -0.77817,0.09607 -1.73017,0.234699 -2.11555,0.30807 -0.67011,0.12758 -0.70872,0.07212 -0.88441,-1.270772 -1.11465,-8.519909 -5.00676,-18.855576 -9.84457,-26.142718 -10.6948,-16.1094303 -27.18308,-26.1295 -46.38178,-28.18661 -26.81206,-2.87287 -52.45991,11.1186397 -64.03662,34.93349 -2.27738,4.684865 -3.51596,8.039157 -4.63847,12.561751 -1.23595,4.979593 -1.70192,8.385709 -1.88301,13.764286 -0.68597,20.372955 8.00714,39.406476 23.72685,51.949845 6.76502,5.398069 15.80626,9.860429 24.20938,11.948679 1.60073,0.3978 2.98301,0.76522 3.07173,0.8165 0.27692,0.16005 -0.61501,4.07731 -0.92548,4.0646 -0.16179,-0.007 -1.60386,-0.35255 -3.20459,-0.76874 z"
             id="path5216" />
        </g>
      </g>
      <g
         transform="translate(-31.1489,-4.5357143)"
         id="g5473">
        <g
           id="g5136"
           transform="matrix(0.32389465,0,0,0.32389465,-53.275944,-116.6371)"
           style="fill:#00675b;fill-opacity:1">
          <path
             id="path5125"
             d="m 198.16101,-13.504687 c -1.68993,-0.635005 -2.97125,-2.596721 -2.97604,-4.556342 -0.002,-0.769892 0.52897,-2.784271 1.46826,-5.571503 3.49115,-10.359529 4.76347,-18.052721 4.79142,-28.971873 0.0291,-11.358403 -1.27319,-19.381361 -4.88807,-30.114343 -1.71165,-5.08209 -1.76335,-5.61024 -0.74703,-7.63264 1.49546,-2.9759 5.78378,-3.11074 7.85819,-0.2471 0.86926,1.19998 3.08806,7.64604 4.40855,12.807705 0.97957,3.829016 1.97797,9.249821 2.56778,13.941587 0.46661,3.71185 0.4696,17.947623 0.005,21.695832 -0.96127,7.747553 -2.407,14.236297 -4.72213,21.193928 -1.62501,4.883608 -2.41978,6.285354 -4.05718,7.155648 -0.88345,0.469562 -2.83562,0.627018 -3.70829,0.299101 z"
             style="fill:#00675b;fill-opacity:1;stroke-width:0.26458332"
             inkscape:connector-curvature="0" />
          <path
             id="path5123"
             d="m 178.77634,-24.56758 c -1.31228,-0.891714 -2.1456,-2.536565 -2.14015,-4.224326 0.003,-0.789578 0.35057,-2.33626 0.86323,-3.836458 2.48431,-7.269853 3.32537,-12.426317 3.32299,-20.372916 -0.002,-7.910412 -0.8175,-12.975722 -3.23587,-20.108332 -1.15571,-3.408579 -1.23006,-4.952735 -0.31799,-6.604346 1.32937,-2.40729 3.8768,-3.11025 6.24396,-1.723 1.42284,0.83385 2.16851,2.09616 3.35615,5.681512 4.43413,13.386197 4.90393,27.860026 1.33111,41.010415 -0.88957,3.274234 -2.29671,7.344113 -2.90201,8.393488 -1.34675,2.334815 -4.45819,3.185961 -6.52142,1.783963 z"
             style="fill:#00675b;fill-opacity:1;stroke-width:0.26458332"
             inkscape:connector-curvature="0" />
          <path
             id="path5119"
             d="m 161.51622,-31.813167 c -0.43656,-0.106778 -1.03222,-0.322326 -1.32369,-0.478994 -0.29147,-0.15667 -7.48958,-5.53594 -15.9958,-11.953935 -12.56133,-9.477594 -15.50945,-11.591192 -15.69795,-11.254348 -0.41181,0.735854 -0.54606,5.280633 -0.20815,7.04587 0.17594,0.919051 0.72875,3.052497 1.22847,4.740989 1.28239,4.333041 1.17292,6.017471 -0.51143,7.869213 -2.10071,2.309487 -5.87088,1.561946 -7.40173,-1.467593 -0.75527,-1.494669 -2.09981,-6.067502 -2.68962,-9.147508 -0.59288,-3.096041 -0.54574,-7.703534 0.11177,-10.926032 0.72427,-3.549679 2.24081,-8.233293 3.04756,-9.411962 1.20491,-1.760392 3.82523,-2.5411 5.78084,-1.722368 0.46827,0.196045 7.81017,5.605965 16.31534,12.022041 8.50517,6.41608 15.54455,11.61578 15.64308,11.554886 0.36692,-0.226769 0.8472,-7.168224 0.69373,-10.026547 -0.20839,-3.881458 -0.57162,-6.172821 -1.6622,-10.485831 -0.96798,-3.828102 -0.9761,-4.575706 -0.0694,-6.388549 1.0112,-2.021732 3.78494,-2.959879 5.74873,-1.944364 1.37107,0.709009 2.61436,2.38877 3.18211,4.299245 1.88365,6.338435 2.50964,11.201188 2.32684,18.075174 -0.19132,7.194766 -1.65672,14.676987 -3.38573,17.287316 -1.16355,1.756642 -3.3605,2.746782 -5.13281,2.313297 z"
             style="fill:#00675b;fill-opacity:1;stroke-width:0.26458332"
             inkscape:connector-curvature="0" />
        </g>
        <text
           xml:space="preserve"
           style="font-style:normal;font-variant:normal;font-weight:normal;font-stretch:normal;font-size:16.05873871px;line-height:4.7047081px;font-family:sans-serif;-inkscape-font-specification:'sans-serif, Normal';font-variant-ligatures:normal;font-variant-caps:normal;font-variant-numeric:normal;font-feature-settings:normal;text-align:start;letter-spacing:0px;word-spacing:0px;writing-mode:lr-tb;text-anchor:start;fill:#00675b;fill-opacity:1;stroke:none;stroke-width:0.18818831px;stroke-linecap:butt;stroke-linejoin:miter;stroke-opacity:1"
           x="31.589186"
           y="-127.95763"
           id="text5391"><tspan
             sodipodi:role="line"
             id="tspan5389"
             x="31.589186"
             y="-127.95763"
             style="fill:#00675b;fill-opacity:1;stroke-width:0.18818831px">TRACKER</tspan></text>
      </g>
      <text
         id="text5395"
         y="-295.77313"
         x="-8.3191805"
         style="font-style:normal;font-variant:normal;font-weight:normal;font-stretch:normal;font-size:16.05349922px;line-height:11.0825882px;font-family:sans-serif;-inkscape-font-specification:'sans-serif, Normal';font-variant-ligatures:normal;font-variant-caps:normal;font-variant-numeric:normal;font-feature-settings:normal;text-align:start;letter-spacing:0px;word-spacing:0px;writing-mode:lr-tb;text-anchor:start;fill:#00675b;fill-opacity:1;stroke:none;stroke-width:0.44330353px;stroke-linecap:butt;stroke-linejoin:miter;stroke-opacity:1"
         xml:space="preserve"><tspan
           style="fill:#00675b;fill-opacity:1;stroke-width:0.44330353px"
           y="-295.77313"
           x="-8.3191805"
           id="tspan5393"
           sodipodi:role="line">EDEN</tspan></text>
    </g>
    <circle
       r="0"
       cy="75.152977"
       cx="174.4493"
       id="ellipse6448"
       style="opacity:0.9;fill:#00112b;fill-opacity:1;stroke:#00675b;stroke-width:0.98719776;stroke-miterlimit:4;stroke-dasharray:none;stroke-dashoffset:0;stroke-opacity:1" />
  </g>
</svg>
